<mxfile host="app.diagrams.net" agent="Mozilla/5.0 (Windows NT 10.0; Win64; x64) AppleWebKit/537.36 (KHTML, like Gecko) Chrome/133.0.0.0 Safari/537.36" version="26.0.13">
  <diagram name="ViewParksRating" id="2YBvvXClWsGukQMizWep">
    <mxGraphModel dx="2595" dy="650" grid="1" gridSize="10" guides="1" tooltips="1" connect="1" arrows="1" fold="1" page="1" pageScale="1" pageWidth="1200" pageHeight="1600" math="0" shadow="0">
      <root>
        <mxCell id="0" />
        <mxCell id="1" parent="0" />
        <mxCell id="aM9ryv3xv72pqoxQDRHE-1" value=":Object" style="shape=umlLifeline;perimeter=lifelinePerimeter;whiteSpace=wrap;html=1;container=0;dropTarget=0;collapsible=0;recursiveResize=0;outlineConnect=0;portConstraint=eastwest;newEdgeStyle={&quot;edgeStyle&quot;:&quot;elbowEdgeStyle&quot;,&quot;elbow&quot;:&quot;vertical&quot;,&quot;curved&quot;:0,&quot;rounded&quot;:0};" parent="1" vertex="1">
          <mxGeometry x="40" y="40" width="100" height="300" as="geometry" />
        </mxCell>
        <mxCell id="aM9ryv3xv72pqoxQDRHE-2" value="" style="html=1;points=[];perimeter=orthogonalPerimeter;outlineConnect=0;targetShapes=umlLifeline;portConstraint=eastwest;newEdgeStyle={&quot;edgeStyle&quot;:&quot;elbowEdgeStyle&quot;,&quot;elbow&quot;:&quot;vertical&quot;,&quot;curved&quot;:0,&quot;rounded&quot;:0};" parent="aM9ryv3xv72pqoxQDRHE-1" vertex="1">
          <mxGeometry x="45" y="70" width="10" height="190" as="geometry" />
        </mxCell>
        <mxCell id="aM9ryv3xv72pqoxQDRHE-3" value="dispatch" style="html=1;verticalAlign=bottom;startArrow=oval;endArrow=block;startSize=8;edgeStyle=elbowEdgeStyle;elbow=vertical;curved=0;rounded=0;" parent="aM9ryv3xv72pqoxQDRHE-1" target="aM9ryv3xv72pqoxQDRHE-2" edge="1">
          <mxGeometry relative="1" as="geometry">
            <mxPoint x="-15" y="70" as="sourcePoint" />
          </mxGeometry>
        </mxCell>
        <mxCell id="aM9ryv3xv72pqoxQDRHE-4" value="" style="html=1;points=[];perimeter=orthogonalPerimeter;outlineConnect=0;targetShapes=umlLifeline;portConstraint=eastwest;newEdgeStyle={&quot;edgeStyle&quot;:&quot;elbowEdgeStyle&quot;,&quot;elbow&quot;:&quot;vertical&quot;,&quot;curved&quot;:0,&quot;rounded&quot;:0};" parent="aM9ryv3xv72pqoxQDRHE-1" vertex="1">
          <mxGeometry x="50" y="120" width="10" height="80" as="geometry" />
        </mxCell>
        <mxCell id="aM9ryv3xv72pqoxQDRHE-5" value=":Object" style="shape=umlLifeline;perimeter=lifelinePerimeter;whiteSpace=wrap;html=1;container=0;dropTarget=0;collapsible=0;recursiveResize=0;outlineConnect=0;portConstraint=eastwest;newEdgeStyle={&quot;edgeStyle&quot;:&quot;elbowEdgeStyle&quot;,&quot;elbow&quot;:&quot;vertical&quot;,&quot;curved&quot;:0,&quot;rounded&quot;:0};" parent="1" vertex="1">
          <mxGeometry x="220" y="40" width="100" height="300" as="geometry" />
        </mxCell>
        <mxCell id="aM9ryv3xv72pqoxQDRHE-6" value="" style="html=1;points=[];perimeter=orthogonalPerimeter;outlineConnect=0;targetShapes=umlLifeline;portConstraint=eastwest;newEdgeStyle={&quot;edgeStyle&quot;:&quot;elbowEdgeStyle&quot;,&quot;elbow&quot;:&quot;vertical&quot;,&quot;curved&quot;:0,&quot;rounded&quot;:0};" parent="aM9ryv3xv72pqoxQDRHE-5" vertex="1">
          <mxGeometry x="45" y="80" width="10" height="170" as="geometry" />
        </mxCell>
        <mxCell id="aM9ryv3xv72pqoxQDRHE-7" value="dispatch" style="html=1;verticalAlign=bottom;endArrow=block;edgeStyle=elbowEdgeStyle;elbow=vertical;curved=0;rounded=0;" parent="1" source="aM9ryv3xv72pqoxQDRHE-2" target="aM9ryv3xv72pqoxQDRHE-6" edge="1">
          <mxGeometry relative="1" as="geometry">
            <mxPoint x="195" y="130" as="sourcePoint" />
            <Array as="points">
              <mxPoint x="180" y="120" />
            </Array>
          </mxGeometry>
        </mxCell>
        <mxCell id="aM9ryv3xv72pqoxQDRHE-8" value="return" style="html=1;verticalAlign=bottom;endArrow=open;dashed=1;endSize=8;edgeStyle=elbowEdgeStyle;elbow=vertical;curved=0;rounded=0;" parent="1" source="aM9ryv3xv72pqoxQDRHE-6" target="aM9ryv3xv72pqoxQDRHE-2" edge="1">
          <mxGeometry relative="1" as="geometry">
            <mxPoint x="195" y="205" as="targetPoint" />
            <Array as="points">
              <mxPoint x="190" y="280" />
            </Array>
          </mxGeometry>
        </mxCell>
        <mxCell id="aM9ryv3xv72pqoxQDRHE-9" value="callback" style="html=1;verticalAlign=bottom;endArrow=block;edgeStyle=elbowEdgeStyle;elbow=vertical;curved=0;rounded=0;" parent="1" source="aM9ryv3xv72pqoxQDRHE-6" target="aM9ryv3xv72pqoxQDRHE-4" edge="1">
          <mxGeometry relative="1" as="geometry">
            <mxPoint x="175" y="160" as="sourcePoint" />
            <Array as="points">
              <mxPoint x="190" y="160" />
            </Array>
          </mxGeometry>
        </mxCell>
        <mxCell id="aM9ryv3xv72pqoxQDRHE-10" value="return" style="html=1;verticalAlign=bottom;endArrow=open;dashed=1;endSize=8;edgeStyle=elbowEdgeStyle;elbow=vertical;curved=0;rounded=0;" parent="1" source="aM9ryv3xv72pqoxQDRHE-4" target="aM9ryv3xv72pqoxQDRHE-6" edge="1">
          <mxGeometry relative="1" as="geometry">
            <mxPoint x="175" y="235" as="targetPoint" />
            <Array as="points">
              <mxPoint x="180" y="230" />
            </Array>
          </mxGeometry>
        </mxCell>
        <mxCell id="URW-FmImd79woZnqxKxK-1" value="&lt;font style=&quot;font-size: 10px;&quot;&gt;sd ViewParksRating&amp;nbsp;&lt;/font&gt;" style="shape=umlFrame;whiteSpace=wrap;html=1;pointerEvents=0;width=110;height=30;" parent="1" vertex="1">
          <mxGeometry x="-270" y="530" width="1110" height="460" as="geometry" />
        </mxCell>
        <mxCell id="URW-FmImd79woZnqxKxK-5" value="" style="shape=umlLifeline;perimeter=lifelinePerimeter;whiteSpace=wrap;html=1;container=1;dropTarget=0;collapsible=0;recursiveResize=0;outlineConnect=0;portConstraint=eastwest;newEdgeStyle={&quot;curved&quot;:0,&quot;rounded&quot;:0};participant=umlActor;" parent="1" vertex="1">
          <mxGeometry x="-255" y="580" width="20" height="400" as="geometry" />
        </mxCell>
        <mxCell id="URW-FmImd79woZnqxKxK-10" value="" style="html=1;points=[[0,0,0,0,5],[0,1,0,0,-5],[1,0,0,0,5],[1,1,0,0,-5]];perimeter=orthogonalPerimeter;outlineConnect=0;targetShapes=umlLifeline;portConstraint=eastwest;newEdgeStyle={&quot;curved&quot;:0,&quot;rounded&quot;:0};" parent="URW-FmImd79woZnqxKxK-5" vertex="1">
          <mxGeometry x="5" y="70" width="10" height="290" as="geometry" />
        </mxCell>
        <mxCell id="URW-FmImd79woZnqxKxK-7" value="" style="shape=umlLifeline;perimeter=lifelinePerimeter;whiteSpace=wrap;html=1;container=1;dropTarget=0;collapsible=0;recursiveResize=0;outlineConnect=0;portConstraint=eastwest;newEdgeStyle={&quot;curved&quot;:0,&quot;rounded&quot;:0};participant=umlBoundary;" parent="1" vertex="1">
          <mxGeometry x="-150" y="580" width="50" height="360" as="geometry" />
        </mxCell>
        <mxCell id="URW-FmImd79woZnqxKxK-15" value="" style="html=1;points=[[0,0,0,0,5],[0,1,0,0,-5],[1,0,0,0,5],[1,1,0,0,-5]];perimeter=orthogonalPerimeter;outlineConnect=0;targetShapes=umlLifeline;portConstraint=eastwest;newEdgeStyle={&quot;curved&quot;:0,&quot;rounded&quot;:0};" parent="URW-FmImd79woZnqxKxK-7" vertex="1">
          <mxGeometry x="20" y="80" width="10" height="250" as="geometry" />
        </mxCell>
        <mxCell id="URW-FmImd79woZnqxKxK-6" value=":User" style="text;html=1;align=center;verticalAlign=middle;resizable=0;points=[];autosize=1;strokeColor=none;fillColor=none;fontSize=12;" parent="1" vertex="1">
          <mxGeometry x="-270" y="620" width="50" height="30" as="geometry" />
        </mxCell>
        <mxCell id="URW-FmImd79woZnqxKxK-18" value=":SelectParksUI" style="text;html=1;align=center;verticalAlign=middle;resizable=0;points=[];autosize=1;strokeColor=none;fillColor=none;" parent="1" vertex="1">
          <mxGeometry x="-170" y="620" width="100" height="30" as="geometry" />
        </mxCell>
        <mxCell id="URW-FmImd79woZnqxKxK-22" value="" style="shape=umlLifeline;perimeter=lifelinePerimeter;whiteSpace=wrap;html=1;container=1;dropTarget=0;collapsible=0;recursiveResize=0;outlineConnect=0;portConstraint=eastwest;newEdgeStyle={&quot;curved&quot;:0,&quot;rounded&quot;:0};participant=umlControl;size=40;" parent="1" vertex="1">
          <mxGeometry x="-20" y="580" width="40" height="360" as="geometry" />
        </mxCell>
        <mxCell id="URW-FmImd79woZnqxKxK-31" value="" style="html=1;points=[[0,0,0,0,5],[0,1,0,0,-5],[1,0,0,0,5],[1,1,0,0,-5]];perimeter=orthogonalPerimeter;outlineConnect=0;targetShapes=umlLifeline;portConstraint=eastwest;newEdgeStyle={&quot;curved&quot;:0,&quot;rounded&quot;:0};" parent="URW-FmImd79woZnqxKxK-22" vertex="1">
          <mxGeometry x="15" y="110" width="10" height="210" as="geometry" />
        </mxCell>
        <mxCell id="URW-FmImd79woZnqxKxK-28" value=":ParksEnvironmentController&amp;nbsp;" style="text;html=1;align=center;verticalAlign=middle;resizable=0;points=[];autosize=1;strokeColor=none;fillColor=none;" parent="1" vertex="1">
          <mxGeometry x="510" y="310" width="180" height="30" as="geometry" />
        </mxCell>
        <mxCell id="URW-FmImd79woZnqxKxK-29" value=":SelectParksController" style="text;html=1;align=center;verticalAlign=middle;resizable=0;points=[];autosize=1;strokeColor=none;fillColor=none;" parent="1" vertex="1">
          <mxGeometry x="-70" y="620" width="140" height="30" as="geometry" />
        </mxCell>
        <mxCell id="URW-FmImd79woZnqxKxK-32" value="identify selected parks" style="html=1;verticalAlign=bottom;endArrow=block;curved=0;rounded=0;entryX=0;entryY=0;entryDx=0;entryDy=5;" parent="1" source="URW-FmImd79woZnqxKxK-15" target="URW-FmImd79woZnqxKxK-31" edge="1">
          <mxGeometry relative="1" as="geometry">
            <mxPoint x="-75" y="695" as="sourcePoint" />
          </mxGeometry>
        </mxCell>
        <mxCell id="URW-FmImd79woZnqxKxK-34" value="" style="shape=umlLifeline;perimeter=lifelinePerimeter;whiteSpace=wrap;html=1;container=1;dropTarget=0;collapsible=0;recursiveResize=0;outlineConnect=0;portConstraint=eastwest;newEdgeStyle={&quot;curved&quot;:0,&quot;rounded&quot;:0};participant=umlEntity;" parent="1" vertex="1">
          <mxGeometry x="100" y="580" width="40" height="360" as="geometry" />
        </mxCell>
        <mxCell id="rGYAIKC7JgB4Hh0c0iKE-3" value="" style="html=1;points=[[0,0,0,0,5],[0,1,0,0,-5],[1,0,0,0,5],[1,1,0,0,-5]];perimeter=orthogonalPerimeter;outlineConnect=0;targetShapes=umlLifeline;portConstraint=eastwest;newEdgeStyle={&quot;curved&quot;:0,&quot;rounded&quot;:0};" vertex="1" parent="URW-FmImd79woZnqxKxK-34">
          <mxGeometry x="15" y="140" width="10" height="170" as="geometry" />
        </mxCell>
        <mxCell id="URW-FmImd79woZnqxKxK-35" value=":ParksList" style="text;html=1;align=center;verticalAlign=middle;resizable=0;points=[];autosize=1;strokeColor=none;fillColor=none;" parent="1" vertex="1">
          <mxGeometry x="80" y="620" width="80" height="30" as="geometry" />
        </mxCell>
        <mxCell id="URW-FmImd79woZnqxKxK-36" value="" style="shape=umlLifeline;perimeter=lifelinePerimeter;whiteSpace=wrap;html=1;container=1;dropTarget=0;collapsible=0;recursiveResize=0;outlineConnect=0;portConstraint=eastwest;newEdgeStyle={&quot;curved&quot;:0,&quot;rounded&quot;:0};participant=umlBoundary;" parent="1" vertex="1">
          <mxGeometry x="230" y="580" width="50" height="360" as="geometry" />
        </mxCell>
        <mxCell id="rGYAIKC7JgB4Hh0c0iKE-12" value="" style="html=1;points=[[0,0,0,0,5],[0,1,0,0,-5],[1,0,0,0,5],[1,1,0,0,-5]];perimeter=orthogonalPerimeter;outlineConnect=0;targetShapes=umlLifeline;portConstraint=eastwest;newEdgeStyle={&quot;curved&quot;:0,&quot;rounded&quot;:0};" vertex="1" parent="URW-FmImd79woZnqxKxK-36">
          <mxGeometry x="20" y="150" width="10" height="190" as="geometry" />
        </mxCell>
        <mxCell id="URW-FmImd79woZnqxKxK-37" value=":ViewSeletedParksDetailsUI" style="text;html=1;align=center;verticalAlign=middle;resizable=0;points=[];autosize=1;strokeColor=none;fillColor=none;" parent="1" vertex="1">
          <mxGeometry x="170" y="620" width="170" height="30" as="geometry" />
        </mxCell>
        <mxCell id="URW-FmImd79woZnqxKxK-38" value="" style="shape=umlLifeline;perimeter=lifelinePerimeter;whiteSpace=wrap;html=1;container=1;dropTarget=0;collapsible=0;recursiveResize=0;outlineConnect=0;portConstraint=eastwest;newEdgeStyle={&quot;curved&quot;:0,&quot;rounded&quot;:0};participant=umlControl;" parent="1" vertex="1">
          <mxGeometry x="460" y="580" width="40" height="360" as="geometry" />
        </mxCell>
        <mxCell id="rGYAIKC7JgB4Hh0c0iKE-6" value="" style="html=1;points=[[0,0,0,0,5],[0,1,0,0,-5],[1,0,0,0,5],[1,1,0,0,-5]];perimeter=orthogonalPerimeter;outlineConnect=0;targetShapes=umlLifeline;portConstraint=eastwest;newEdgeStyle={&quot;curved&quot;:0,&quot;rounded&quot;:0};" vertex="1" parent="URW-FmImd79woZnqxKxK-38">
          <mxGeometry x="15" y="160" width="10" height="160" as="geometry" />
        </mxCell>
        <mxCell id="URW-FmImd79woZnqxKxK-39" value=":ViewSelectedParksController" style="text;html=1;align=center;verticalAlign=middle;resizable=0;points=[];autosize=1;strokeColor=none;fillColor=none;" parent="1" vertex="1">
          <mxGeometry x="390" y="620" width="180" height="30" as="geometry" />
        </mxCell>
        <mxCell id="rGYAIKC7JgB4Hh0c0iKE-1" value="" style="shape=umlLifeline;perimeter=lifelinePerimeter;whiteSpace=wrap;html=1;container=1;dropTarget=0;collapsible=0;recursiveResize=0;outlineConnect=0;portConstraint=eastwest;newEdgeStyle={&quot;curved&quot;:0,&quot;rounded&quot;:0};participant=umlControl;" vertex="1" parent="1">
          <mxGeometry x="730" y="580" width="40" height="360" as="geometry" />
        </mxCell>
        <mxCell id="rGYAIKC7JgB4Hh0c0iKE-15" value="" style="html=1;points=[[0,0,0,0,5],[0,1,0,0,-5],[1,0,0,0,5],[1,1,0,0,-5]];perimeter=orthogonalPerimeter;outlineConnect=0;targetShapes=umlLifeline;portConstraint=eastwest;newEdgeStyle={&quot;curved&quot;:0,&quot;rounded&quot;:0};" vertex="1" parent="rGYAIKC7JgB4Hh0c0iKE-1">
          <mxGeometry x="15" y="270" width="10" height="30" as="geometry" />
        </mxCell>
        <mxCell id="rGYAIKC7JgB4Hh0c0iKE-2" value=":CalculateRatingController" style="text;html=1;align=center;verticalAlign=middle;resizable=0;points=[];autosize=1;strokeColor=none;fillColor=none;" vertex="1" parent="1">
          <mxGeometry x="680" y="620" width="160" height="30" as="geometry" />
        </mxCell>
        <mxCell id="URW-FmImd79woZnqxKxK-27" value="return retrieved data" style="html=1;verticalAlign=bottom;endArrow=open;dashed=1;endSize=8;curved=0;rounded=0;exitX=0;exitY=1;exitDx=0;exitDy=-5;" parent="1" edge="1" target="rGYAIKC7JgB4Hh0c0iKE-6">
          <mxGeometry relative="1" as="geometry">
            <mxPoint x="550" y="835" as="targetPoint" />
            <mxPoint x="620" y="805" as="sourcePoint" />
          </mxGeometry>
        </mxCell>
        <mxCell id="URW-FmImd79woZnqxKxK-26" value="retrieve environment data" style="html=1;verticalAlign=bottom;endArrow=block;curved=0;rounded=0;entryX=0;entryY=0;entryDx=0;entryDy=5;" parent="1" edge="1" source="rGYAIKC7JgB4Hh0c0iKE-6">
          <mxGeometry relative="1" as="geometry">
            <mxPoint x="490" y="765" as="sourcePoint" />
            <mxPoint x="620" y="765" as="targetPoint" />
          </mxGeometry>
        </mxCell>
        <mxCell id="rGYAIKC7JgB4Hh0c0iKE-9" value="display parks list" style="html=1;verticalAlign=bottom;endArrow=open;dashed=1;endSize=8;curved=0;rounded=0;exitX=0;exitY=1;exitDx=0;exitDy=-5;" edge="1" parent="1">
          <mxGeometry relative="1" as="geometry">
            <mxPoint x="-240" y="900" as="targetPoint" />
            <mxPoint x="-130" y="900" as="sourcePoint" />
          </mxGeometry>
        </mxCell>
        <mxCell id="URW-FmImd79woZnqxKxK-33" value="save parks" style="html=1;verticalAlign=bottom;endArrow=open;dashed=1;endSize=8;curved=0;rounded=0;exitX=0;exitY=1;exitDx=0;exitDy=-5;" parent="1" source="URW-FmImd79woZnqxKxK-31" edge="1" target="URW-FmImd79woZnqxKxK-15">
          <mxGeometry relative="1" as="geometry">
            <mxPoint x="-75" y="765" as="targetPoint" />
          </mxGeometry>
        </mxCell>
        <mxCell id="rGYAIKC7JgB4Hh0c0iKE-4" value="find selected parks" style="html=1;verticalAlign=bottom;endArrow=block;curved=0;rounded=0;entryX=0;entryY=0;entryDx=0;entryDy=5;" edge="1" target="rGYAIKC7JgB4Hh0c0iKE-3" parent="1" source="URW-FmImd79woZnqxKxK-31">
          <mxGeometry relative="1" as="geometry">
            <mxPoint x="10" y="725" as="sourcePoint" />
            <mxPoint as="offset" />
          </mxGeometry>
        </mxCell>
        <mxCell id="rGYAIKC7JgB4Hh0c0iKE-5" value="return results" style="html=1;verticalAlign=bottom;endArrow=open;dashed=1;endSize=8;curved=0;rounded=0;exitX=0;exitY=1;exitDx=0;exitDy=-5;" edge="1" source="rGYAIKC7JgB4Hh0c0iKE-3" parent="1" target="URW-FmImd79woZnqxKxK-31">
          <mxGeometry relative="1" as="geometry">
            <mxPoint x="45" y="795" as="targetPoint" />
          </mxGeometry>
        </mxCell>
        <mxCell id="rGYAIKC7JgB4Hh0c0iKE-7" value="generate parks details" style="html=1;verticalAlign=bottom;endArrow=block;curved=0;rounded=0;entryX=0;entryY=0;entryDx=0;entryDy=5;" edge="1" target="rGYAIKC7JgB4Hh0c0iKE-6" parent="1" source="rGYAIKC7JgB4Hh0c0iKE-12">
          <mxGeometry relative="1" as="geometry">
            <mxPoint x="185" y="745" as="sourcePoint" />
          </mxGeometry>
        </mxCell>
        <mxCell id="rGYAIKC7JgB4Hh0c0iKE-8" value="return environmental data and ratings" style="html=1;verticalAlign=bottom;endArrow=open;dashed=1;endSize=8;curved=0;rounded=0;exitX=0;exitY=1;exitDx=0;exitDy=-5;" edge="1" source="rGYAIKC7JgB4Hh0c0iKE-6" parent="1" target="rGYAIKC7JgB4Hh0c0iKE-12">
          <mxGeometry relative="1" as="geometry">
            <mxPoint x="185" y="815" as="targetPoint" />
          </mxGeometry>
        </mxCell>
        <mxCell id="rGYAIKC7JgB4Hh0c0iKE-13" value="display selected parks" style="html=1;verticalAlign=bottom;endArrow=block;curved=0;rounded=0;entryX=0;entryY=0;entryDx=0;entryDy=5;" edge="1" target="rGYAIKC7JgB4Hh0c0iKE-12" parent="1" source="rGYAIKC7JgB4Hh0c0iKE-3">
          <mxGeometry relative="1" as="geometry">
            <mxPoint x="160" y="760" as="sourcePoint" />
          </mxGeometry>
        </mxCell>
        <mxCell id="rGYAIKC7JgB4Hh0c0iKE-16" value="calculate ratings" style="html=1;verticalAlign=bottom;endArrow=block;curved=0;rounded=0;entryX=0;entryY=0;entryDx=0;entryDy=5;" edge="1" target="rGYAIKC7JgB4Hh0c0iKE-15" parent="1" source="rGYAIKC7JgB4Hh0c0iKE-6">
          <mxGeometry relative="1" as="geometry">
            <mxPoint x="675" y="795" as="sourcePoint" />
          </mxGeometry>
        </mxCell>
        <mxCell id="rGYAIKC7JgB4Hh0c0iKE-17" value="return results" style="html=1;verticalAlign=bottom;endArrow=open;dashed=1;endSize=8;curved=0;rounded=0;exitX=0;exitY=1;exitDx=0;exitDy=-5;" edge="1" source="rGYAIKC7JgB4Hh0c0iKE-15" parent="1" target="rGYAIKC7JgB4Hh0c0iKE-6">
          <mxGeometry relative="1" as="geometry">
            <mxPoint x="675" y="865" as="targetPoint" />
          </mxGeometry>
        </mxCell>
        <mxCell id="rGYAIKC7JgB4Hh0c0iKE-18" value="&lt;span style=&quot;text-wrap-mode: nowrap;&quot;&gt;:data.gov.sg API&lt;/span&gt;" style="shape=umlLifeline;perimeter=lifelinePerimeter;whiteSpace=wrap;html=1;container=1;dropTarget=0;collapsible=0;recursiveResize=0;outlineConnect=0;portConstraint=eastwest;newEdgeStyle={&quot;curved&quot;:0,&quot;rounded&quot;:0};" vertex="1" parent="1">
          <mxGeometry x="575" y="580" width="100" height="360" as="geometry" />
        </mxCell>
        <mxCell id="rGYAIKC7JgB4Hh0c0iKE-20" value="" style="html=1;points=[[0,0,0,0,5],[0,1,0,0,-5],[1,0,0,0,5],[1,1,0,0,-5]];perimeter=orthogonalPerimeter;outlineConnect=0;targetShapes=umlLifeline;portConstraint=eastwest;newEdgeStyle={&quot;curved&quot;:0,&quot;rounded&quot;:0};" vertex="1" parent="rGYAIKC7JgB4Hh0c0iKE-18">
          <mxGeometry x="45" y="180" width="10" height="50" as="geometry" />
        </mxCell>
        <mxCell id="rGYAIKC7JgB4Hh0c0iKE-23" value="tap to select parks" style="html=1;verticalAlign=bottom;endArrow=block;curved=0;rounded=0;" edge="1" parent="1">
          <mxGeometry width="80" relative="1" as="geometry">
            <mxPoint x="-240" y="670" as="sourcePoint" />
            <mxPoint x="-130" y="670" as="targetPoint" />
          </mxGeometry>
        </mxCell>
      </root>
    </mxGraphModel>
  </diagram>
</mxfile>
